<?xml version="1.0" encoding="UTF-8" standalone="no"?>
<!-- Created with Inkscape (http://www.inkscape.org/) -->

<svg
   width="133.38185mm"
   height="55.764927mm"
   viewBox="0 0 133.38185 55.764927"
   version="1.1"
   id="svg1"
   xml:space="preserve"
   xmlns="http://www.w3.org/2000/svg"
   xmlns:svg="http://www.w3.org/2000/svg"><defs
     id="defs1" /><g
     id="layer1"
     transform="translate(-37.349538,-92.764784)"><path
       style="fill:#d49b33;fill-opacity:1;stroke-width:0.264583"
       d="m 37.409885,147.18953 -0.06035,-52.807811 a 1.6150921,1.6150921 134.96726 0 1 1.615091,-1.616938 h 5.616019 a 4.2633249,4.2633249 22.180285 0 1 2.980796,1.215244 L 72.660171,118.5247 a 21.909472,21.909472 53.359151 0 1 4.090281,5.49937 l 12.511383,23.88913 a 0.3593964,0.3593964 121.03496 0 1 -0.31657,0.52614 l -4.852065,0.0244 a 2.161471,2.161471 22.047414 0 1 -1.522691,-0.61667 L 53.481714,119.37845 a 0.5114862,0.5114862 157.31296 0 0 -0.869239,0.36338 l -0.116487,27.43288 a 1.3253396,1.3253396 135.24253 0 1 -1.330921,1.3197 l -12.506926,-0.0528 a 1.2535464,1.2535464 45.088149 0 1 -1.248256,-1.2521 z"
       id="path1" /><path
       style="fill:#1f7375;fill-opacity:1;stroke-width:0.264583"
       d="M 77.67159,116.66406 77.493014,95.087672 c -0.0087,-1.050093 0.835564,-1.902642 1.885696,-1.904172 6.111134,-0.0089 25.46449,-0.03607 36.0132,-0.03898 8.9143,-0.0025 16.56157,9.257639 16.69709,17.709459 0.14131,8.81301 -8.21892,16.92086 -17.54042,17.36047 l 20.69702,20.26256 -20.16807,0.0527 -18.586983,-18.34435 a 2.8334795,2.8334795 67.176776 0 1 -0.843082,-2.00334 l -0.06168,-13.08855 a 1.5413894,1.5413894 134.90887 0 1 1.543733,-1.54865 l 18.308546,0.028 a 0.8812587,0.8812587 134.48131 0 0 0.88244,-0.89856 l -0.0834,-4.24724 a 0.83445227,0.83445227 44.256743 0 0 -0.83956,-0.81805 l -22.225329,0.14018 a 0.5928067,0.5928067 134.84978 0 0 -0.589068,0.59216 l -0.03931,36.96957 a 0.63229678,0.63229678 166.5377 0 1 -1.195749,0.28624 L 78.646067,120.6525 a 8.9529353,8.9529353 76.270146 0 1 -0.974477,-3.98844 z"
       id="path2" /><g
       id="g6"><path
         style="opacity:1;fill:#d49b33;fill-opacity:1;stroke-width:0.264583"
         d="m 131.03102,122.82947 c -0.82673,0.97536 -2.21548,2.49225 -3.78642,3.70399 -1.68859,1.30247 -3.68719,2.51796 -4.829,3.18195 -0.50733,0.29502 -0.58422,0.85732 -0.16475,1.26812 l 16.97568,16.62445 a 2.4554745,2.4554745 22.200554 0 0 1.71804,0.70114 h 27.98026 a 1.3907495,1.3907495 134.84231 0 0 1.39073,-1.3984 l -0.17778,-32.29724 a 0.98522856,0.98522856 44.84231 0 0 -0.98521,-0.97981 h -25.99845 a 1.2436999,1.2436999 134.37597 0 0 -1.2434,1.27079 l 0.26274,12.06029 a 1.2805691,1.2805691 43.96477 0 0 1.29865,1.25255 l 10.75564,-0.1544 a 1.2938167,1.2938167 43.669953 0 1 1.31172,1.2522 l 0.12767,3.97896 a 0.67777181,0.67777181 134.08115 0 1 -0.67743,0.69951 h -21.88829 a 1.2710906,1.2710906 45 0 1 -1.27109,-1.27109 v -9.61013 c 0,-0.702 -0.34543,-0.81836 -0.79931,-0.28288 z"
         id="path3" /><path
         style="opacity:1;fill:#d49b33;fill-opacity:1;stroke-width:0.264583"
         d="m 128.71756,94.285464 4.79384,-0.998717 a 6.588747,6.588747 174.18863 0 1 1.36054,-0.138472 l 35.13833,0.08926 a 0.72295801,0.72295801 67.636019 0 1 0.50824,1.235292 l -12.5482,12.492921 a 2.2451475,2.2451475 157.60363 0 1 -1.58722,0.65409 l -20.80681,-0.0293 c -0.45244,-6.3e-4 -0.88016,-0.36296 -0.97071,-0.80627 -0.24156,-1.18259 -0.77796,-3.45306 -1.65159,-5.33649 -0.19017,-0.40998 -0.54439,-1.05312 -0.79192,-1.4317 -1.07052,-1.637268 -2.73738,-3.388494 -3.81117,-4.448403 -0.56366,-0.556374 -0.40906,-1.120563 0.36667,-1.282173 z"
         id="path4" /></g></g></svg>
